HIERARCHY
ROOT Hips
{
	OFFSET 2.108877 85.843872 6.433784
	CHANNELS 6 Xposition Yposition Zposition Zrotation Yrotation Xrotation 
	JOINT Spine
	{
		OFFSET -0.000000 8.814246 -2.080107
		CHANNELS 3 Zrotation Yrotation Xrotation
		JOINT Spine1
		{
			OFFSET 0.000000 8.844141 0.000000
			CHANNELS 3 Zrotation Yrotation Xrotation
			JOINT Spine2
			{
				OFFSET 0.000000 11.682268 -0.000000
				CHANNELS 3 Zrotation Yrotation Xrotation
				JOINT Spine3
				{
					OFFSET 0.000000 11.746700 0.000000
					CHANNELS 3 Zrotation Yrotation Xrotation
					JOINT Neck
					{
						OFFSET 0.000000 17.658264 -0.000000
						CHANNELS 3 Zrotation Yrotation Xrotation
						JOINT Neck1
						{
							OFFSET 0.000000 5.101515 -0.000000
							CHANNELS 3 Zrotation Yrotation Xrotation
							JOINT Head
							{
								OFFSET -0.000000 5.101515 0.000000
								CHANNELS 3 Zrotation Yrotation Xrotation
								JOINT HeadEnd
								{
									OFFSET 0.000000 11.655085 -0.000000
									CHANNELS 3 Zrotation Yrotation Xrotation
									End Site
									{
										OFFSET 0.000000 0.000000 0.000000
									}
								}
							}
						}
					}
					JOINT RightShoulder
					{
						OFFSET -2.625389 11.175210 -0.000000
						CHANNELS 3 Zrotation Yrotation Xrotation
						JOINT RightArm
						{
							OFFSET -0.000000 10.434715 0.000000
							CHANNELS 3 Zrotation Yrotation Xrotation
							JOINT RightForeArm
							{
								OFFSET -0.000000 29.628420 -0.000000
								CHANNELS 3 Zrotation Yrotation Xrotation
								JOINT RightHand
								{
									OFFSET -0.000000 22.857611 0.000000
									CHANNELS 3 Zrotation Yrotation Xrotation
									JOINT RightHandThumb1
									{
										OFFSET -2.867323 3.959563 2.944291
										CHANNELS 3 Zrotation Yrotation Xrotation
										JOINT RightHandThumb2
										{
											OFFSET -0.000000 3.350399 0.000000
											CHANNELS 3 Zrotation Yrotation Xrotation
											JOINT RightHandThumb3
											{
												OFFSET -0.000000 3.756509 0.000000
												CHANNELS 3 Zrotation Yrotation Xrotation
												JOINT RightHandThumb4
												{
													OFFSET 0.000000 3.147345 0.000000
													CHANNELS 3 Zrotation Yrotation Xrotation
													End Site
													{
														OFFSET 0.000000 0.000000 0.000000
													}
												}
											}
										}
									}
									JOINT RightHandIndex1
									{
										OFFSET -0.086752 10.030893 2.345280
										CHANNELS 3 Zrotation Yrotation Xrotation
										JOINT RightHandIndex2
										{
											OFFSET -0.000000 4.061090 0.000000
											CHANNELS 3 Zrotation Yrotation Xrotation
											JOINT RightHandIndex3
											{
												OFFSET 0.000000 3.248873 -0.000000
												CHANNELS 3 Zrotation Yrotation Xrotation
												JOINT RightHandIndex4
												{
													OFFSET 0.000000 2.639709 -0.000000
													CHANNELS 3 Zrotation Yrotation Xrotation
													End Site
													{
														OFFSET 0.000000 0.000000 0.000000
													}
												}
											}
										}
									}
									JOINT RightHandMiddle1
									{
										OFFSET 0.104102 9.502952 0.006768
										CHANNELS 3 Zrotation Yrotation Xrotation
										JOINT RightHandMiddle2
										{
											OFFSET 0.000000 4.568727 -0.000000
											CHANNELS 3 Zrotation Yrotation Xrotation
											JOINT RightHandMiddle3
											{
												OFFSET -0.000000 3.654981 0.000000
												CHANNELS 3 Zrotation Yrotation Xrotation
												JOINT RightHandMiddle4
												{
													OFFSET -0.000000 2.741236 0.000000
													CHANNELS 3 Zrotation Yrotation Xrotation
													End Site
													{
														OFFSET 0.000000 0.000000 0.000000
													}
												}
											}
										}
									}
									JOINT RightHandRing1
									{
										OFFSET 0.086752 8.921708 -2.267442
										CHANNELS 3 Zrotation Yrotation Xrotation
										JOINT RightHandRing2
										{
											OFFSET 0.000000 4.061090 0.000000
											CHANNELS 3 Zrotation Yrotation Xrotation
											JOINT RightHandRing3
											{
												OFFSET -0.000000 3.654981 0.000000
												CHANNELS 3 Zrotation Yrotation Xrotation
												JOINT RightHandRing4
												{
													OFFSET -0.000000 2.741236 0.000000
													CHANNELS 3 Zrotation Yrotation Xrotation
													End Site
													{
														OFFSET 0.000000 0.000000 0.000000
													}
												}
											}
										}
									}
									JOINT RightHandPinky1
									{
										OFFSET -0.173504 7.976997 -4.467199
										CHANNELS 3 Zrotation Yrotation Xrotation
										JOINT RightHandPinky2
										{
											OFFSET -0.000000 3.350399 0.000000
											CHANNELS 3 Zrotation Yrotation Xrotation
											JOINT RightHandPinky3
											{
												OFFSET 0.000000 2.842763 -0.000000
												CHANNELS 3 Zrotation Yrotation Xrotation
												JOINT RightHandPinky4
												{
													OFFSET -0.000000 2.639709 0.000000
													CHANNELS 3 Zrotation Yrotation Xrotation
													End Site
													{
														OFFSET 0.000000 0.000000 0.000000
													}
												}
											}
										}
									}
									JOINT RightForeArmEnd
									{
										OFFSET 0.000000 0.000000 0.000000
										CHANNELS 3 Zrotation Yrotation Xrotation
										End Site
										{
											OFFSET 0.000000 0.000000 0.000000
										}
									}
								}
								JOINT RightArmEnd
								{
									OFFSET 0.000000 0.000000 0.000000
									CHANNELS 3 Zrotation Yrotation Xrotation
									End Site
									{
										OFFSET 0.000000 0.000000 0.000000
									}
								}
							}
						}
					}
					JOINT LeftShoulder
					{
						OFFSET 2.625389 11.175210 -0.000000
						CHANNELS 3 Zrotation Yrotation Xrotation
						JOINT LeftArm
						{
							OFFSET 0.000000 10.813635 0.000000
							CHANNELS 3 Zrotation Yrotation Xrotation
							JOINT LeftForeArm
							{
								OFFSET 0.000000 28.724781 -0.000000
								CHANNELS 3 Zrotation Yrotation Xrotation
								JOINT LeftHand
								{
									OFFSET 0.644384 25.716167 -0.328871
									CHANNELS 3 Zrotation Yrotation Xrotation
									JOINT LeftHandThumb1
									{
										OFFSET 2.867323 3.959563 2.944291
										CHANNELS 3 Zrotation Yrotation Xrotation
										JOINT LeftHandThumb2
										{
											OFFSET -0.000000 3.350399 -0.000000
											CHANNELS 3 Zrotation Yrotation Xrotation
											JOINT LeftHandThumb3
											{
												OFFSET 0.000000 3.756509 0.000000
												CHANNELS 3 Zrotation Yrotation Xrotation
												JOINT LeftHandThumb4
												{
													OFFSET -0.000000 3.100000 -0.000000
													CHANNELS 3 Zrotation Yrotation Xrotation
													End Site
													{
														OFFSET 0.000000 0.000000 0.000000
													}
												}
											}
										}
									}
									JOINT LeftHandIndex1
									{
										OFFSET 0.086752 10.030893 2.345280
										CHANNELS 3 Zrotation Yrotation Xrotation
										JOINT LeftHandIndex2
										{
											OFFSET 0.000000 4.061090 -0.000000
											CHANNELS 3 Zrotation Yrotation Xrotation
											JOINT LeftHandIndex3
											{
												OFFSET 0.000000 3.248873 0.000000
												CHANNELS 3 Zrotation Yrotation Xrotation
												JOINT LeftHandIndex4
												{
													OFFSET -0.000000 2.639709 -0.000000
													CHANNELS 3 Zrotation Yrotation Xrotation
													End Site
													{
														OFFSET 0.000000 0.000000 0.000000
													}
												}
											}
										}
									}
									JOINT LeftHandMiddle1
									{
										OFFSET -0.104102 9.502952 0.006768
										CHANNELS 3 Zrotation Yrotation Xrotation
										JOINT LeftHandMiddle2
										{
											OFFSET 0.000000 4.568727 0.000000
											CHANNELS 3 Zrotation Yrotation Xrotation
											JOINT LeftHandMiddle3
											{
												OFFSET -0.000000 3.654981 -0.000000
												CHANNELS 3 Zrotation Yrotation Xrotation
												JOINT LeftHandMiddle4
												{
													OFFSET 0.000000 2.741236 -0.000000
													CHANNELS 3 Zrotation Yrotation Xrotation
													End Site
													{
														OFFSET 0.000000 0.000000 0.000000
													}
												}
											}
										}
									}
									JOINT LeftHandRing1
									{
										OFFSET -0.086752 8.921708 -2.267442
										CHANNELS 3 Zrotation Yrotation Xrotation
										JOINT LeftHandRing2
										{
											OFFSET 0.000000 4.061090 0.000000
											CHANNELS 3 Zrotation Yrotation Xrotation
											JOINT LeftHandRing3
											{
												OFFSET -0.000000 3.654981 -0.000000
												CHANNELS 3 Zrotation Yrotation Xrotation
												JOINT LeftHandRing4
												{
													OFFSET 0.000000 2.741236 0.000000
													CHANNELS 3 Zrotation Yrotation Xrotation
													End Site
													{
														OFFSET 0.000000 0.000000 0.000000
													}
												}
											}
										}
									}
									JOINT LeftHandPinky1
									{
										OFFSET 0.173504 7.976997 -4.467199
										CHANNELS 3 Zrotation Yrotation Xrotation
										JOINT LeftHandPinky2
										{
											OFFSET 0.000000 3.350399 0.000000
											CHANNELS 3 Zrotation Yrotation Xrotation
											JOINT LeftHandPinky3
											{
												OFFSET -0.000000 2.842763 -0.000000
												CHANNELS 3 Zrotation Yrotation Xrotation
												JOINT LeftHandPinky4
												{
													OFFSET -0.000000 2.639709 0.000000
													CHANNELS 3 Zrotation Yrotation Xrotation
													End Site
													{
														OFFSET 0.000000 0.000000 0.000000
													}
												}
											}
										}
									}
									JOINT LeftForeArmEnd
									{
										OFFSET 0.000000 0.000000 0.000000
										CHANNELS 3 Zrotation Yrotation Xrotation
										End Site
										{
											OFFSET 0.000000 0.000000 0.000000
										}
									}
								}
								JOINT LeftArmEnd
								{
									OFFSET 0.000000 0.000000 0.000000
									CHANNELS 3 Zrotation Yrotation Xrotation
									End Site
									{
										OFFSET 0.000000 0.000000 0.000000
									}
								}
							}
						}
					}
				}
			}
		}
	}
	JOINT RightUpLeg
	{
		OFFSET -11.289943 -0.000000 -0.000000
		CHANNELS 3 Zrotation Yrotation Xrotation
		JOINT RightLeg
		{
			OFFSET 0.000000 -38.200325 -0.000000
			CHANNELS 3 Zrotation Yrotation Xrotation
			JOINT RightFoot
			{
				OFFSET -0.000000 -39.900856 0.000000
				CHANNELS 3 Zrotation Yrotation Xrotation
				JOINT RightToeBase
				{
					OFFSET 0.000000 -0.000000 15.261641
					CHANNELS 3 Zrotation Yrotation Xrotation
					JOINT RightToeBaseEnd
					{
						OFFSET 0.000000 -0.000000 7.370709
						CHANNELS 3 Zrotation Yrotation Xrotation
						End Site
						{
							OFFSET 0.000000 0.000000 0.000000
						}
					}
				}
				JOINT RightLegEnd
				{
					OFFSET 0.000000 0.000000 0.000000
					CHANNELS 3 Zrotation Yrotation Xrotation
					End Site
					{
						OFFSET 0.000000 0.000000 0.000000
					}
				}
			}
			JOINT RightUpLegEnd
			{
				OFFSET 0.000000 0.000000 0.000000
				CHANNELS 3 Zrotation Yrotation Xrotation
				End Site
				{
					OFFSET 0.000000 0.000000 0.000000
				}
			}
		}
	}
	JOINT LeftUpLeg
	{
		OFFSET 11.315661 0.000000 0.000000
		CHANNELS 3 Zrotation Yrotation Xrotation
		JOINT LeftLeg
		{
			OFFSET 0.000000 -38.200325 -0.000000
			CHANNELS 3 Zrotation Yrotation Xrotation
			JOINT LeftFoot
			{
				OFFSET 0.000000 -39.900856 0.000000
				CHANNELS 3 Zrotation Yrotation Xrotation
				JOINT LeftToeBase
				{
					OFFSET -0.000000 0.000000 15.261641
					CHANNELS 3 Zrotation Yrotation Xrotation
					JOINT LeftToeBaseEnd
					{
						OFFSET 0.000000 -0.000000 7.539996
						CHANNELS 3 Zrotation Yrotation Xrotation
						End Site
						{
							OFFSET 0.000000 0.000000 0.000000
						}
					}
				}
				JOINT LeftLegEnd
				{
					OFFSET 0.000000 0.000000 0.000000
					CHANNELS 3 Zrotation Yrotation Xrotation
					End Site
					{
						OFFSET 0.000000 0.000000 0.000000
					}
				}
			}
			JOINT LeftUpLegEnd
			{
				OFFSET 0.000000 0.000000 0.000000
				CHANNELS 3 Zrotation Yrotation Xrotation
				End Site
				{
					OFFSET 0.000000 0.000000 0.000000
				}
			}
		}
	}
}
MOTION
Frames: 4
Frame Time: 0.016667
-1.676441 85.854141 18.236013 4.276112 -10.019158 -20.497015 -5.414302 1.546029 9.447904 0.559711 0.214787 2.342920 1.477006 1.370937 14.002408 2.551068 0.431202 6.554059 -4.369072 7.561356 10.423701 1.688648 5.099670 -1.618300 -0.502708 1.084308 -21.708033 0.000000 0.000000 0.000000 91.503578 0.195906 11.963732 60.041958 -9.261466 6.748187 0.463886 18.315741 32.729443 28.390959 48.335800 11.222770 11.036746 -1.806237 39.791439 0.000012 0.000014 -26.671236 -0.000033 0.000042 -18.595753 -0.000002 -0.000005 0.000002 16.272427 17.278368 -5.477246 12.732810 -0.330726 -4.206124 12.672798 0.624667 -3.996754 -0.000006 -0.000001 0.000001 16.414654 7.002837 -6.460381 12.037146 -0.718562 -1.663938 12.178976 0.222194 -1.458054 -0.000003 -0.000023 0.000019 20.020407 -8.790533 -7.718189 12.268179 1.638351 2.305198 11.950971 -0.283595 1.781158 0.000007 -0.000876 0.000023 21.420696 -24.994320 -9.696637 10.445020 3.035547 6.276072 10.087088 -0.764201 5.321398 -0.001995 0.000017 0.000011 0.000000 0.000000 0.000000 0.000000 0.000000 0.000000 -89.225853 0.152249 14.518292 -45.870869 26.829422 10.543076 -1.507129 -18.564390 54.175884 -16.359964 -19.962683 -3.684728 -13.188148 1.982582 38.776756 0.000005 -0.000007 -32.268631 -0.000055 -0.000037 -22.337658 -0.000493 0.000002 -0.000304 -31.217340 17.233196 -7.368817 -19.682522 -0.225005 5.020240 -19.470516 0.734871 4.601057 0.000041 -0.000688 -0.000004 -27.729013 7.034759 -8.276989 -18.737743 -0.697284 1.963518 -18.939590 0.246381 1.671831 0.000448 -0.000052 -0.000183 -25.575230 -8.956944 -7.145196 -18.169373 1.549517 -2.582927 -18.529984 -0.313968 -1.996663 0.001269 -0.000007 -0.000012 -21.841389 -25.171585 -7.739175 -15.699455 2.952959 -7.143922 -15.875826 -0.853119 -5.989021 0.000198 0.000006 -0.000023 0.000000 0.000000 0.000000 0.000000 0.000000 0.000000 -17.461281 4.136554 1.432749 -0.572260 -1.327149 26.194897 8.972314 -9.773394 20.085482 -2.063645 0.746947 -20.229485 0.000000 0.000000 0.000000 0.000000 0.000000 0.000000 0.000000 0.000000 0.000000 -1.189959 18.154039 25.500881 0.139335 0.792334 10.411379 1.429885 16.787596 7.256261 0.099760 -1.577985 -14.369868 0.000000 0.000000 0.000000 0.000000 0.000000 0.000000 0.000000 0.000000 0.000000 
-1.833077 85.861702 18.398537 4.278760 -10.065866 -20.587681 -5.493116 1.563801 9.474658 0.544195 0.227311 2.391103 1.536306 1.294840 14.012800 2.574145 0.414407 6.597270 -4.318822 7.453890 10.285972 1.658595 5.006973 -1.709948 -0.472561 1.104673 -21.578838 0.000000 0.000000 0.000000 91.765709 0.148223 11.960033 60.341782 -10.346384 6.908438 0.491397 17.872011 31.518312 25.495337 47.555367 9.626687 10.771535 -1.785813 39.906029 0.000013 0.000013 -26.038744 -0.000033 0.000042 -18.162571 -0.000001 -0.000004 0.000002 14.720245 17.278200 -5.549549 11.821525 -0.385031 -4.007512 11.765233 0.573433 -3.811793 -0.000006 -0.000002 0.000001 14.875782 7.002548 -6.533381 11.074233 -0.742052 -1.579381 11.207476 0.203495 -1.387569 -0.000003 -0.000017 0.000019 18.388735 -8.789494 -7.804840 11.149141 1.675233 2.179352 10.834019 -0.255856 1.683958 0.000007 -0.000965 0.000024 19.818110 -24.994583 -9.811217 9.366805 3.142271 5.910912 9.010854 -0.673925 5.014142 -0.001984 0.000017 0.000009 0.000000 0.000000 0.000000 0.000000 0.000000 0.000000 -89.497818 0.211703 14.571293 -46.311611 28.278385 10.801367 -1.548198 -17.969551 52.788116 -14.846520 -19.780212 -4.634400 -13.025803 1.973226 38.851753 0.000006 -0.000007 -31.854843 -0.000067 -0.000037 -22.060843 -0.000466 -0.000000 -0.000437 -30.157856 17.252796 -7.642128 -18.959352 -0.272349 4.830744 -18.750101 0.689696 4.428162 0.000041 -0.000714 -0.000004 -26.664307 7.044609 -8.514966 -18.001354 -0.717690 1.887767 -18.204214 0.231324 1.608346 0.000415 -0.000052 -0.000195 -24.422159 -8.973684 -7.261434 -17.403881 1.581904 -2.476561 -17.776770 -0.292790 -1.918720 0.001310 -0.000007 -0.000012 -20.676970 -25.228909 -7.791643 -15.002502 3.031558 -6.845490 -15.182488 -0.791252 -5.752485 0.000192 0.000006 -0.000023 0.000000 0.000000 0.000000 0.000000 0.000000 0.000000 -17.411098 4.489862 1.572613 -0.578849 -1.339966 26.155107 8.992715 -9.376821 20.008610 -2.039432 0.772569 -20.327394 0.000000 0.000000 0.000000 0.000000 0.000000 0.000000 0.000000 0.000000 0.000000 -1.019252 18.256891 25.727827 0.140308 0.798341 10.351658 1.272186 16.851347 7.247840 0.108095 -1.587846 -14.411548 0.000000 0.000000 0.000000 0.000000 0.000000 0.000000 0.000000 0.000000 0.000000 
-2.013825 85.866928 18.577068 4.273155 -10.087842 -20.689619 -5.567639 1.579449 9.501116 0.516903 0.237542 2.451912 1.598762 1.205592 13.985300 2.602658 0.393949 6.650752 -4.293037 7.366645 10.172375 1.630705 4.939883 -1.790238 -0.453387 1.126070 -21.456650 0.000000 0.000000 0.000000 92.008545 0.102570 11.920950 60.658005 -11.456699 7.051980 0.509499 17.350195 30.325718 22.884430 46.552666 8.254609 10.499802 -1.764093 40.023125 0.000013 0.000013 -25.394398 -0.000033 0.000042 -17.721666 0.000000 -0.000003 0.000002 13.159007 17.275913 -5.592624 10.912127 -0.439867 -3.800794 10.861614 0.521618 -3.619936 -0.000006 -0.000002 0.000001 13.329431 7.000100 -6.586304 10.106374 -0.765724 -1.492106 10.229003 0.184571 -1.314485 -0.000003 -0.000010 0.000019 16.748344 -8.785689 -7.886011 10.023706 1.711873 2.048527 9.710648 -0.227977 1.583354 0.000006 -0.001041 0.000025 18.199059 -24.986864 -9.934394 8.278333 3.248840 5.533384 7.924766 -0.583700 4.696236 -0.001962 0.000017 0.000008 0.000000 0.000000 0.000000 0.000000 0.000000 0.000000 -89.758972 0.257792 14.597947 -46.710003 29.769367 11.031905 -1.602275 -17.269167 51.262917 -13.515067 -19.622564 -5.577761 -12.841133 1.962565 38.937111 0.000006 -0.000006 -31.383492 -0.000079 -0.000037 -21.744289 -0.000430 -0.000002 -0.000531 -28.980497 17.275539 -7.902177 -18.162668 -0.321746 4.629998 -17.958502 0.642504 4.246002 0.000041 -0.000721 -0.000004 -25.489401 7.053478 -8.749639 -17.189787 -0.739002 1.807218 -17.389284 0.215432 1.541165 0.000379 -0.000053 -0.000207 -23.157684 -8.986757 -7.389627 -16.562109 1.615882 -2.363701 -16.945377 -0.270363 -1.835882 0.001340 -0.000006 -0.000012 -19.384954 -25.279549 -7.889254 -14.232752 3.114467 -6.526877 -14.415747 -0.725703 -5.500064 0.000186 0.000006 -0.000023 0.000000 0.000000 0.000000 0.000000 0.000000 0.000000 -17.326479 4.856592 1.744639 -0.584759 -1.351687 26.146271 9.006927 -8.986779 19.880684 -2.010567 0.799811 -20.417118 0.000000 0.000000 0.000000 0.000000 0.000000 0.000000 0.000000 0.000000 0.000000 -0.822047 18.304453 25.987322 0.141831 0.804109 10.301903 1.091027 16.896729 7.230610 0.121408 -1.598053 -14.455473 0.000000 0.000000 0.000000 0.000000 0.000000 0.000000 0.000000 0.000000 0.000000 
-2.220478 85.869820 18.772623 4.257296 -10.089910 -20.795231 -5.631279 1.592257 9.531424 0.477543 0.244885 2.518530 1.659443 1.109053 13.926244 2.633211 0.371922 6.711869 -4.292695 7.304121 10.073048 1.605977 4.900666 -1.861077 -0.448863 1.145378 -21.345552 0.000000 0.000000 0.000000 92.218048 0.061325 11.839117 61.055767 -12.565430 7.131104 0.514678 16.762323 29.235760 20.705519 45.441811 7.224034 10.243050 -1.742252 40.134609 0.000014 0.000012 -24.785303 -0.000033 0.000043 -17.306358 0.000001 -0.000002 0.000001 11.698906 17.274155 -5.586112 10.079770 -0.491087 -3.600216 10.038097 0.473179 -3.434880 -0.000006 -0.000003 0.000002 11.880177 6.997452 -6.602590 9.210713 -0.787830 -1.408269 9.322249 0.166849 -1.244070 -0.000003 -0.000003 0.000020 15.195194 -8.782723 -7.943949 8.973553 1.745658 1.921659 8.663354 -0.202083 1.486161 0.000006 -0.001110 0.000027 16.654915 -24.980219 -10.048333 7.252628 3.347631 5.167806 6.902803 -0.500277 4.388168 -0.001930 0.000017 0.000006 0.000000 0.000000 0.000000 0.000000 0.000000 0.000000 -90.002327 0.289921 14.583382 -47.137657 31.243387 11.176991 -1.658553 -16.490839 49.690552 -12.482391 -19.517031 -6.369073 -12.650640 1.951472 39.025837 0.000006 -0.000005 -30.894266 -0.000091 -0.000037 -21.414906 -0.000381 -0.000005 -0.000565 -27.787687 17.298790 -8.122671 -17.363562 -0.369483 4.432646 -17.166059 0.596904 4.067909 0.000041 -0.000707 -0.000004 -24.303408 7.060669 -8.954541 -16.374205 -0.759637 1.727760 -16.565615 0.199871 1.475172 0.000327 -0.000053 -0.000217 -21.876667 -8.996128 -7.508193 -15.711741 1.649064 -2.252012 -16.101616 -0.248344 -1.753939 0.001370 -0.000006 -0.000012 -18.051464 -25.323793 -8.010795 -13.447291 3.195664 -6.209205 -13.631511 -0.661325 -5.248454 0.000173 0.000005 -0.000023 0.000000 0.000000 0.000000 0.000000 0.000000 0.000000 -17.201164 5.233444 1.945888 -0.589367 -1.362204 26.156591 9.014606 -8.597276 19.702471 -1.977567 0.829888 -20.495661 0.000000 0.000000 0.000000 0.000000 0.000000 0.000000 0.000000 0.000000 0.000000 -0.597486 18.288507 26.278229 0.144156 0.810095 10.255177 0.878211 16.926384 7.208352 0.139970 -1.609567 -14.504857 0.000000 0.000000 0.000000 0.000000 0.000000 0.000000 0.000000 0.000000 0.000000 
